# xmcd
#
# Track frame offsets:
#	150
#	10378
#	21227
#	32681
#	43099
#	58879
#	78362
#	87214
#	96932
#	113139
#	130343
#	141444
#	153110
#	165824
#	178886
#	192730
#	204464
#
# Disc length: 2900
#
# Revision: 5
# Processed by: cddbd v1.5.1PL0 Copyright (c) Steve Scherf et al.
# Submitted via: Axialis_AX_CDPlayer 2.6
# Normalized: r4:DSETVAR1
#
DISCID=e70b5211
DTITLE=Various Artist - The Best Of Country and Western, CD 2
DYEAR=1900
DGENRE=
TTITLE0=Jim Reeves - He'll Have To Go
TTITLE1=Roger Miller - King Of The Road
TTITLE2=Don Gibson - A Legend Of My Time
TTITLE3=Loretta Lynn - You're Looking At Country
TTITLE4=Don Williams - Tears
TTITLE5=John Denver - Potter's Weel
TTITLE6=Waylon Jennings - Love's Gonna Live Here
TTITLE7=Charley Pride - Kiss An Angel Good Morning
TTITLE8=Mac Wiseman - 18 Wheels Hummin' Home
TTITLE9=Lynn Anderson - Blue Bayou
TTITLE10=Hank Locklin - Send Me A Pillow, That You Dream On
TTITLE11=Johnny Cash - These Hands
TTITLE12=George Jones - Don' Be Angry
TTITLE13=Ferlin Husky - Behind Closed Doors
TTITLE14=Johnny Doolar - You don't have to say you love me
TTITLE15=Johnny Hill - Big wheels
TTITLE16=Faron Young - Swinging doors
EXTD=
EXTT0=
EXTT1=
EXTT2=
EXTT3=
EXTT4=
EXTT5=
EXTT6=
EXTT7=
EXTT8=
EXTT9=
EXTT10=
EXTT11=
EXTT12=
EXTT13=
EXTT14=
EXTT15=
EXTT16=
PLAYORDER=
